<svg width="27" height="27" viewBox="0 0 27 27" fill="none" xmlns="http://www.w3.org/2000/svg">
<path d="M18.99 13.86c-.02-2.5 2.04-3.7 2.13-3.75-1.16-1.7-2.97-1.93-3.61-1.95-1.53-.16-3 .9-3.78.9-.78 0-1.98-.88-3.26-.86-1.68.03-3.22.98-4.08 2.47-1.74 3.02-.44 7.48 1.25 9.93.83 1.2 1.8 2.54 3.09 2.49 1.24-.05 1.71-.8 3.21-.8 1.49 0 1.91.8 3.23.78 1.34-.02 2.19-1.22 3-2.42.95-1.39 1.34-2.74 1.36-2.81-.03-.02-2.6-1-2.63-3.98ZM16.53 5.99c.68-.83 1.14-1.97 1.02-3.11-.98.04-2.18.65-2.88 1.48-.63.73-1.19 1.9-1.04 3.01 1.13.09 2.23-.57 2.9-1.38Z" fill="white"/>
</svg>
