<svg width="27" height="27" viewBox="0 0 27 27" fill="none" xmlns="http://www.w3.org/2000/svg">
<path d="M13.5 0C6.04 0 0 6.04 0 13.5S6.04 27 13.5 27 27 20.96 27 13.5 20.96 0 13.5 0Zm6.2 19.48c-.24.4-.75.53-1.15.29-3.16-1.93-7.13-2.37-11.81-1.3-.45.1-.9-.18-1-.63-.1-.45.18-.9.63-1 5.12-1.17 9.52-.67 13.06 1.49.4.24.53.75.27 1.15Zm1.65-3.68c-.3.5-.94.66-1.44.36-3.62-2.22-9.14-2.87-13.42-1.57-.55.17-1.13-.14-1.3-.69-.17-.55.14-1.13.69-1.3 4.89-1.48 10.97-.76 15.11 1.76.5.3.66.94.36 1.44Zm.14-3.83c-4.34-2.58-11.5-2.82-15.65-1.56-.65.2-1.34-.17-1.54-.82-.2-.65.17-1.34.82-1.54 4.77-1.45 12.7-1.17 17.71 1.81.59.35.78 1.11.43 1.7-.35.58-1.12.77-1.77.41Z" fill="white"/>
</svg>
